<svg width="512" height="512" viewBox="0 0 512 512" fill="none" xmlns="http://www.w3.org/2000/svg">
<path d="M427.357 512H84.6426C37.8958 512 0 474.104 0 427.357V84.6426C0 37.8958 37.8958 0 84.6426 0H427.357C474.104 0 512 37.8958 512 84.6426V427.357C512 474.104 474.104 512 427.357 512Z" fill="white"/>
<path d="M118.241 229.017C118.355 227.701 118.621 223.956 120.608 219.655C122.834 214.835 126.036 211.881 129.044 209.161C134.497 204.229 135.748 204.997 143.344 198.873C146.751 196.127 149.355 194.001 152.192 190.437C153.925 188.259 156.169 185.44 157.953 181.177C159.595 177.256 159.747 174.741 162.377 170.478C164.41 167.184 165.528 166.728 166.081 166.568C169.888 165.472 174.124 170.597 174.62 171.198C177.321 174.466 177.924 177.958 178.427 180.869C179.329 186.095 178.542 190.358 178.015 192.494C176.859 197.184 174.748 200.587 173.283 202.577C182.782 202.611 192.281 202.645 201.781 202.679C203.264 203.169 205.467 204.141 207.233 206.177C210.477 209.917 210.23 214.918 210.114 217.391C208.658 248.471 210.369 254.051 204.147 262.865C202.007 265.896 199.372 269.628 194.476 272.124C188.333 275.255 185.802 272.783 174.003 275.519C163.483 277.958 160.079 281.179 158.468 284.161C157.833 285.336 157.51 286.411 157.336 287.145C157.251 290.869 157.153 296.31 157.13 302.885C157.074 319.675 157.076 328.175 158.571 333.338C159.703 337.248 163.397 349.371 174.723 357.207C177.827 359.354 183.15 362.932 190.772 363.071C191.943 363.092 201.525 363.12 208.982 356.075C211.66 353.545 213.15 350.967 214.538 348.256C221.525 334.607 223.794 321.728 223.797 321.713C225.381 312.724 227.94 302.654 233.056 282.515C239.677 256.458 245.493 243.215 247.254 239.305C254.945 222.231 260.664 215.848 262.378 213.996C272.571 202.983 283.608 198.282 286.76 197.021C298.457 192.343 308.279 192.371 315.773 192.391C322.138 192.409 331.914 192.521 343.551 196.712C357.886 201.876 366.782 210.253 371.637 214.922C383.44 226.271 389.054 237.861 393.242 246.713C400.722 262.522 403.104 275.849 404.353 283.132C407.361 300.672 406.519 314.034 405.588 328.812C404.27 349.722 401.076 365.238 399.724 370.17C393.659 392.291 393.859 391.466 386.452 410.293C385.691 412.227 383.314 418.393 379.045 424.491C377.364 426.891 374.463 429.522 370.094 430.664C368.832 430.993 365.175 431.748 357.748 428.812C350.946 426.123 342.712 422.867 337.995 413.997C333.449 405.448 334.949 396.912 335.526 393.626C336.233 389.6 337.099 388.84 340.464 380.663C342.674 375.295 347.014 364.645 349.724 352.886C351.376 345.716 351.905 340.378 352.501 334.367C352.926 330.083 353.843 319.367 353.119 304.737C352.458 291.405 352.062 284.59 348.798 277.268C347.129 273.525 344.38 267.552 337.995 262.762C335.645 260.999 330.64 257.348 323.18 256.898C321.78 256.813 313.723 256.446 306.514 261.836C301.567 265.535 299.706 270.051 296.946 276.034C288.893 293.489 285.009 314.313 285.009 314.313C281.128 328.529 279.527 336.184 274.723 353.503C270.709 367.975 268.186 375.283 263.304 384.676C258.199 394.496 252.657 404.892 241.081 413.997C238.88 415.728 228.849 423.401 213.303 427.269C194.842 431.862 179.073 428.485 170.402 425.725C153.421 420.321 142.975 410.699 138.612 406.589C127.606 396.225 122.154 385.655 119.167 379.738C113.392 368.296 111.215 358.779 109.291 350.108C105.893 334.797 105.563 323.042 105.278 310.602C104.791 289.275 104.548 278.612 108.056 264.922C111.666 250.838 117.213 240.932 118.241 229.017Z" fill="#A9BC93"/>
<path d="M260.011 180.766C287.285 180.766 309.394 158.656 309.394 131.383C309.394 104.109 287.285 82 260.011 82C232.738 82 210.629 104.109 210.629 131.383C210.629 158.656 232.738 180.766 260.011 180.766Z" fill="#A9BC93"/>
</svg>
