<svg width="302" height="349" viewBox="0 0 302 349" fill="none" xmlns="http://www.w3.org/2000/svg">
<path d="M13.2413 147.017C13.3549 145.701 13.6208 141.956 15.6076 137.655C17.8339 132.835 21.0363 129.881 24.0438 127.161C29.4967 122.229 30.7477 122.997 38.3443 116.873C41.7506 114.127 44.3546 112.001 47.192 108.437C48.9252 106.259 51.1694 103.44 52.9534 99.1773C54.5948 95.2556 54.7465 92.7406 57.3773 88.4777C59.4101 85.1838 60.5276 84.7277 61.081 84.5682C64.8877 83.4715 69.1236 88.597 69.6201 89.1978C72.3209 92.4659 72.924 95.9579 73.4267 98.8687C74.3295 104.095 73.5422 108.358 73.0152 110.494C71.8585 115.184 69.748 118.587 68.2827 120.577C77.782 120.611 87.2814 120.645 96.7807 120.679C98.2645 121.169 100.467 122.141 102.233 124.177C105.477 127.917 105.23 132.918 105.114 135.391C103.658 166.471 105.369 172.051 99.1469 180.865C97.0074 183.896 94.3724 187.628 89.4762 190.124C83.3327 193.255 80.8024 190.783 69.0028 193.519C58.4835 195.958 55.0792 199.179 53.4678 202.161C52.8331 203.336 52.5104 204.411 52.3361 205.145C52.251 208.869 52.1526 214.31 52.1304 220.885C52.0737 237.675 52.0759 246.175 53.5707 251.338C54.7026 255.248 58.397 267.371 69.723 275.207C72.8267 277.354 78.1503 280.932 85.7724 281.071C86.9427 281.092 96.5252 281.12 103.982 274.075C106.66 271.545 108.15 268.967 109.538 266.256C116.525 252.607 118.794 239.728 118.797 239.713C120.381 230.724 122.94 220.654 128.056 200.515C134.677 174.458 140.493 161.215 142.254 157.305C149.945 140.231 155.664 133.848 157.378 131.996C167.571 120.983 178.608 116.282 181.76 115.021C193.457 110.343 203.279 110.371 210.773 110.391C217.138 110.409 226.914 110.521 238.551 114.712C252.886 119.876 261.782 128.253 266.637 132.922C278.44 144.271 284.054 155.861 288.242 164.713C295.722 180.522 298.104 193.849 299.353 201.132C302.361 218.672 301.519 232.034 300.588 246.812C299.27 267.722 296.076 283.238 294.724 288.17C288.659 310.291 288.859 309.466 281.452 328.293C280.691 330.227 278.314 336.393 274.045 342.491C272.364 344.891 269.463 347.522 265.094 348.664C263.832 348.993 260.175 349.748 252.748 346.812C245.946 344.123 237.712 340.867 232.995 331.997C228.449 323.448 229.949 314.912 230.526 311.626C231.233 307.6 232.099 306.84 235.464 298.663C237.674 293.295 242.014 282.645 244.724 270.886C246.376 263.716 246.905 258.378 247.501 252.367C247.926 248.083 248.843 237.367 248.119 222.737C247.458 209.405 247.062 202.59 243.798 195.268C242.129 191.525 239.38 185.552 232.995 180.762C230.645 178.999 225.64 175.348 218.18 174.898C216.78 174.813 208.723 174.446 201.514 179.836C196.567 183.535 194.706 188.051 191.946 194.034C183.893 211.489 180.009 232.313 180.009 232.313C176.128 246.529 174.527 254.184 169.723 271.503C165.709 285.975 163.186 293.283 158.304 302.676C153.199 312.496 147.657 322.892 136.081 331.997C133.88 333.728 123.849 341.401 108.303 345.269C89.8418 349.862 74.073 346.485 65.402 343.725C48.4215 338.321 37.9754 328.699 33.6118 324.589C22.6061 314.225 17.1537 303.655 14.1673 297.738C8.39249 286.296 6.21473 276.779 4.29073 268.108C0.893261 252.797 0.562532 241.042 0.27835 228.602C-0.20886 207.275 -0.452464 196.612 3.05612 182.922C6.66576 168.838 12.2131 158.932 13.2413 147.017Z" fill="#A9BC93"/>
<path d="M155.011 98.7657C182.285 98.7657 204.394 76.6563 204.394 49.3829C204.394 22.1095 182.285 0 155.011 0C127.738 0 105.629 22.1095 105.629 49.3829C105.629 76.6563 127.738 98.7657 155.011 98.7657Z" fill="#A9BC93"/>
</svg>
