<svg viewBox="0 0 22 22" fill="none" stroke="currentColor" xmlns="http://www.w3.org/2000/svg">
    <path d="M11 1C5.47715 1 1 5.47715 1 11C1 16.5228 5.47715 21 11 21C16.5228 21 21 16.5228 21 11C21 5.47715 16.5228 1 11 1Z"
          stroke-width="1.5" stroke-linecap="round" stroke-linejoin="round"/>
    <path d="M3.271 17.3457C3.271 17.3457 5.50002 14.5 11 14.5C16.5 14.5 18.7291 17.3457 18.7291 17.3457"
          stroke-width="1.5" stroke-linecap="round" stroke-linejoin="round"/>
    <path d="M11 11C12.6569 11 14 9.65688 14 7.99998C14 6.34313 12.6569 4.99998 11 4.99998C9.3431 4.99998 8 6.34313 8 7.99998C8 9.65688 9.3431 11 11 11Z"
          stroke-width="1.5" stroke-linecap="round" stroke-linejoin="round"/>
</svg>
