<svg viewBox="0 0 20 20" xmlns="http://www.w3.org/2000/svg">
    <path d="M18.7734 19.5703H1.22656C0.785156 19.5703 0.429688 19.2148 0.429688 18.7734V1.22656C0.429688 0.785156 0.785156 0.429688 1.22656 0.429688C1.66797 0.429688 2.02344 0.785156 2.02344 1.22656V17.9766H18.7695C19.2109 17.9766 19.5664 18.332 19.5664 18.7734C19.5703 19.2148 19.2148 19.5703 18.7734 19.5703Z"
          fill="currentColor"/>
    <path d="M4.91406 16.6289C4.47266 16.6289 4.11719 16.2734 4.11719 15.832V2.57422C4.11719 2.13281 4.47266 1.77734 4.91406 1.77734C5.35547 1.77734 5.71094 2.13281 5.71094 2.57422V15.832C5.71484 16.2734 5.35547 16.6289 4.91406 16.6289Z"
          fill="currentColor"/>
    <path d="M9.30078 16.6289C8.85938 16.6289 8.50391 16.2734 8.50391 15.832V5.46875C8.50391 5.02734 8.85938 4.67188 9.30078 4.67188C9.74219 4.67188 10.0977 5.02734 10.0977 5.46875V15.832C10.1016 16.2734 9.74219 16.6289 9.30078 16.6289Z"
          fill="currentColor"/>
    <path d="M13.6875 16.6289C13.2461 16.6289 12.8906 16.2734 12.8906 15.832V9.08984C12.8906 8.64844 13.2461 8.29297 13.6875 8.29297C14.1289 8.29297 14.4844 8.64844 14.4844 9.08984V15.832C14.4844 16.2734 14.1289 16.6289 13.6875 16.6289Z"
          fill="currentColor"/>
    <path d="M18.0742 16.6289C17.6328 16.6289 17.2773 16.2734 17.2773 15.832V11.9844C17.2773 11.543 17.6328 11.1875 18.0742 11.1875C18.5156 11.1875 18.8711 11.543 18.8711 11.9844V15.832C18.8711 16.2734 18.5156 16.6289 18.0742 16.6289Z"
          fill="currentColor"/>
</svg>
