<svg viewBox="0 0 22 20" xmlns="http://www.w3.org/2000/svg">
    <path d="M1.91463 9.00013H21.0436C21.2972 9.00013 21.5405 9.10548 21.7199 9.29299C21.8992 9.4805 22 9.73482 22 10C22 10.2652 21.8992 10.5195 21.7199 10.707C21.5405 10.8945 21.2972 10.9999 21.0436 10.9999H1.91463C1.66097 10.9999 1.41769 10.8945 1.23832 10.707C1.05896 10.5195 0.958187 10.2652 0.958187 10C0.958187 9.73482 1.05896 9.4805 1.23832 9.29299C1.41769 9.10548 1.66097 9.00013 1.91463 9.00013Z"
          fill="currentColor"/>
    <path d="M2.31057 10L10.2433 18.291C10.4229 18.4787 10.5238 18.7333 10.5238 18.9989C10.5238 19.2644 10.4229 19.519 10.2433 19.7068C10.0637 19.8945 9.82015 20 9.56617 20C9.31218 20 9.0686 19.8945 8.889 19.7068L0.280992 10.7079C0.191921 10.615 0.121254 10.5047 0.0730367 10.3832C0.0248195 10.2617 0 10.1315 0 10C0 9.86848 0.0248195 9.73826 0.0730367 9.61678C0.121254 9.49531 0.191921 9.38497 0.280992 9.29209L8.889 0.293226C9.0686 0.105476 9.31218 0 9.56617 0C9.82015 0 10.0637 0.105476 10.2433 0.293226C10.4229 0.480976 10.5238 0.735619 10.5238 1.00114C10.5238 1.26665 10.4229 1.5213 10.2433 1.70905L2.31057 10Z"
          fill="currentColor"/>
</svg>
