<svg viewBox="0 0 320 568" preserveAspectRatio="none" fill="none" xmlns="http://www.w3.org/2000/svg">
    <path d="M0.823624 0H190.242C195.032 10.6155 189.339 23.3094 181.022 31.4631C172.706 39.6169 162.009 44.9245 153.244 52.5942C141.574 62.8066 133.818 76.7857 127.999 91.1604C122.181 105.535 118.076 120.554 112.328 134.957C104.614 154.284 93.9432 172.429 80.8017 188.565C77.0468 193.175 73.048 197.663 68.2248 201.14C60.9761 206.366 52.2523 209.05 43.7025 211.649C35.0123 214.291 25.9061 216.96 16.9788 215.287C8.05137 213.613 -0.48532 206.073 0.0214966 197.004L0.823624 0Z"
          fill="currentColor"/>
    <path d="M271.499 568C245.378 554.969 234.93 524.905 238.537 495.937C242.144 466.969 256.628 440.709 268.878 414.212C285.279 378.738 298.132 341.241 302.357 302.388C306.582 263.535 301.818 223.139 284.522 188.092C281.016 180.987 276.49 173.653 269.141 170.693C257.622 166.052 245.248 173.957 234.97 180.927C224.692 187.897 210.825 194.312 200.598 187.268C191.623 181.085 191.097 168.103 192.754 157.331C199.611 112.74 227.056 74.572 250.133 35.8055C256.945 24.3615 263.96 13.0395 261.25 0H320V568H271.499Z"
          fill="currentColor"/>
    <path d="M174.118 82.4521C179.764 71.3981 185.199 53.7947 180.154 50.4216C174.311 46.5151 155.19 62.2185 143.911 79.6986C135.314 93.0224 126.988 114.017 132.336 117.98C138.4 122.474 162.417 105.358 174.118 82.4521Z"
          fill="currentColor"/>
    <path d="M86.0565 317.121C102.649 323.508 109.338 347.802 111.215 356.008C117.155 381.978 106.478 384.922 111.215 407.079C116.835 433.364 133.043 434.758 135.972 460.097C136.599 465.517 137.941 483.48 127.839 499.581C118.32 514.751 107.259 514.534 90.8931 529.703C82.9278 537.086 72.8215 548.934 64.871 568H0V298.018C4.23896 297.694 11.2593 297.64 19.1121 300.239C38.2077 306.558 43.2048 322.269 55.6873 320.824C62.3031 320.058 64.1528 315.269 73.7955 314.972C73.7955 314.972 79.9772 314.782 86.0565 317.121Z"
          fill="currentColor"/>
    <path d="M198.66 262.38C206.254 250.182 212.541 244.753 231.926 222.703C238.183 215.586 243.122 209.788 246.006 206.379C249.816 200.275 256.603 191.26 263.795 191.989C276.644 193.292 282.075 224.808 283.196 231.316C284.299 237.722 288.396 264.441 272.535 313.362C262.018 345.798 253.332 371.376 228.799 387.707C221.769 392.386 210.076 400.169 198.66 396.63C175.599 389.48 174.262 342.509 174.224 340.462C173.836 319.498 180.859 301.865 186.902 286.69C189.924 279.104 192.898 271.637 198.66 262.38Z"
          fill="currentColor"/>
    <path d="M49.7743 279.323C52.9431 277.212 59.3261 280.566 62.2651 285.087C65.6693 290.323 65.3403 298.489 61.8592 300.241C58.4879 301.937 52.4085 297.494 49.7743 292.515C47.5115 288.239 46.6465 281.406 49.7743 279.323Z"
          fill="currentColor"/>
</svg>
