<svg viewBox="0 0 18 18" fill="none" xmlns="http://www.w3.org/2000/svg">
<path d="M15.3126 6.89492H2.68901C2.43358 6.89546 2.18157 6.95359 1.95172 7.065C1.72187 7.1764 1.52011 7.33821 1.36144 7.53838C1.20383 7.7383 1.09368 7.9714 1.0393 8.2201C0.984917 8.4688 0.987718 8.7266 1.0475 8.97406L2.40101 14.5161C2.59662 15.2303 3.02218 15.8601 3.61182 16.3081C4.20166 16.757 4.92382 17 5.66674 17H12.3331C13.076 17 13.7982 16.757 14.388 16.3081C14.9777 15.8601 15.4032 15.2303 15.5988 14.5161L16.9524 8.97492C17.0435 8.60134 17.0035 8.20781 16.8391 7.86019C16.6748 7.51256 16.396 7.23194 16.0494 7.0653C15.8192 6.9536 15.5667 6.89535 15.3108 6.89492M5.61658 10.2627V13.6314M9.00079 10.2627V13.6314M12.385 10.2627V13.6314M14.9234 6.89492C14.9231 6.12004 14.7697 5.35286 14.4719 4.63746C14.1742 3.92207 13.738 3.27256 13.1885 2.72627C12.0756 1.62 10.57 0.999342 9.00079 1C7.43161 0.999342 5.92599 1.62 4.81312 2.72627C4.26372 3.27263 3.82771 3.92217 3.53012 4.63756C3.23254 5.35296 3.07925 6.1201 3.07906 6.89492"  stroke-linecap="round" stroke-linejoin="round"/>
</svg>
