<svg viewBox="0 0 22 22" fill="none" stroke="currentColor" xmlns="http://www.w3.org/2000/svg">
    <path d="M10.6296 11.3704L15.0741 6.92593" stroke-width="1.5" stroke-miterlimit="10" stroke-linecap="round"
          stroke-linejoin="round"/>
    <path d="M21 3.96296H18.037V1L15.0741 3.96296V6.92593H18.037L21 3.96296Z" stroke-width="1.5" stroke-miterlimit="10"
          stroke-linecap="round" stroke-linejoin="round"/>
    <path d="M10.6296 15.8148C13.0842 15.8148 15.0741 13.825 15.0741 11.3704C15.0741 8.91577 13.0842 6.92593 10.6296 6.92593C8.17503 6.92593 6.18518 8.91577 6.18518 11.3704C6.18518 13.825 8.17503 15.8148 10.6296 15.8148Z"
          stroke-width="1.5" stroke-miterlimit="10" stroke-linecap="round" stroke-linejoin="round"/>
    <path d="M18.7778 6.18518C19.7407 7.66666 20.2593 9.44444 20.2593 11.3704C20.2593 16.7037 15.963 21 10.6296 21C5.2963 21 1 16.7037 1 11.3704C1 6.03703 5.2963 1.74074 10.6296 1.74074C12.5556 1.74074 14.3333 2.25926 15.8148 3.22222"
          stroke-width="1.5" stroke-miterlimit="10" stroke-linecap="round" stroke-linejoin="round"/>
</svg>
