<svg viewBox="0 0 26 19" stroke="currentColor" fill="none" xmlns="http://www.w3.org/2000/svg">
    <path d="M24.6191 6.46429C24.6191 9.48215 19.4704 11.9286 13.1191 11.9286M24.6191 6.46429C24.6191 3.44645 19.4704 1 13.1191 0.999999C6.76782 0.999999 1.61914 3.44644 1.61914 6.46428M24.6191 6.46429L24.6191 13.1429C24.6191 15.8253 19.4704 18 13.1191 18M13.1191 11.9286C6.76782 11.9286 1.61914 9.48215 1.61914 6.46428M13.1191 11.9286L13.1191 18M1.61914 6.46428L1.61914 13.1429C1.61914 15.8253 6.76782 18 13.1191 18M6.73025 17.1821L6.73025 11.0084M19.508 17.1821L19.508 11.0084M18.2303 6.46429C18.2303 7.4702 15.9419 8.28571 13.1191 8.28571C10.2964 8.28571 8.00803 7.4702 8.00803 6.46429C8.00803 5.45833 10.2964 4.64286 13.1191 4.64286C15.9419 4.64286 18.2303 5.45833 18.2303 6.46429Z"
          stroke-width="1.5" stroke-linecap="round" stroke-linejoin="round"/>
</svg>
