<svg viewBox="0 0 20 20" fill="none" xmlns="http://www.w3.org/2000/svg">
<path d="M19.149 0H2.93617C1.31916 0 0 1.31916 0 2.93617V17.0638C0 18.6808 1.31916 20 2.93617 20H19.149C19.617 20 20 19.617 20 19.1915V0.851051C20 0.382979 19.617 0 19.149 0ZM4.21277 18.2979H2.93617C2.25531 18.2979 1.65958 17.7447 1.65958 17.0213V2.93617C1.65958 2.25531 2.21278 1.65958 2.93617 1.65958H4.21277V18.2979ZM18.3404 18.3404H5.91491V1.65958H18.3405V18.3404H18.3404Z" fill="currentColor"/>
<path d="M15.9592 6.76596C15.4486 6.25532 14.8103 6 14.172 6C13.5337 6 12.8954 6.29789 12.4273 6.76596C11.9592 6.29785 11.3634 6 10.6826 6C9.23577 6 8.08683 7.31916 8.00174 9.1064C7.91664 11.0213 10.9805 13.8724 11.9167 14.6809C12.0869 14.8085 12.2571 14.8936 12.4699 14.8936C12.6401 14.8936 12.8103 14.851 12.8954 14.7234C13.321 14.383 16.8103 11.5319 16.8529 9.14893C16.8953 8.25531 16.5549 7.36169 15.9592 6.76596ZM12.4698 12.9787C11.023 11.617 9.61875 9.87236 9.66131 9.19149C9.66131 8.34044 10.1294 7.65958 10.6826 7.65958C11.1081 7.65958 11.4911 8.04255 11.6188 8.59576C11.7464 8.93617 12.0443 9.19149 12.4273 9.19149C12.8103 9.19149 13.1507 8.93617 13.2358 8.59576C13.406 8.04255 13.789 7.65958 14.2145 7.65958C14.4699 7.65958 14.6826 7.8298 14.8103 7.95746C15.0656 8.25535 15.2358 8.68085 15.2358 9.14897C15.2358 10.2128 13.7039 11.8723 12.4698 12.9787Z" fill="currentColor"/>
</svg>
