<svg viewBox="0 0 20 16" fill="none" xmlns="http://www.w3.org/2000/svg">
<path d="M8.03993 13.9286L7.58261 14.5231L8.03993 13.9286C7.76206 13.7149 7.47948 13.5022 7.19539 13.2885C6.00107 12.3899 4.78015 11.4713 3.77138 10.3628C2.54843 9.01888 1.70239 7.4588 1.70239 5.43913C1.70239 3.47012 2.84253 1.81029 4.41275 1.10984C5.94036 0.4284 7.99314 0.609785 9.94222 2.58598L10.4762 3.12739L11.0102 2.58598C12.9592 0.609786 15.012 0.428399 16.5396 1.10984C18.1099 1.81029 19.25 3.47013 19.25 5.43913C19.25 7.4588 18.404 9.01888 17.181 10.3628C16.1723 11.4713 14.9513 12.3899 13.757 13.2885C13.4729 13.5023 13.1904 13.7149 12.9125 13.9286C12.4113 14.3142 11.9663 14.651 11.5378 14.8953C11.1095 15.1395 10.7666 15.25 10.4762 15.25C10.1858 15.25 9.84286 15.1395 9.4146 14.8953C8.98615 14.651 8.54114 14.3142 8.03993 13.9286Z" stroke="#BD3333" stroke-width="1.5"/>
</svg>
