<svg viewBox="0 0 22 22" fill="none" xmlns="http://www.w3.org/2000/svg">
<path d="M7.66667 21V13.0996C7.66667 12.5017 7.66667 12.2026 7.78777 11.9743C7.8943 11.7735 8.06428 11.6101 8.27334 11.5077C8.51102 11.3913 8.82211 11.3913 9.44444 11.3913H12.5556C13.1779 11.3913 13.489 11.3913 13.7267 11.5077C13.9358 11.6101 14.1057 11.7735 14.2122 11.9743C14.3333 12.2026 14.3333 12.5017 14.3333 13.0996V21M9.90856 1.53078L2.37266 7.16265C1.86891 7.53912 1.61704 7.72735 1.43559 7.96309C1.27486 8.1719 1.15511 8.40714 1.08226 8.65726C1 8.9396 1 9.2462 1 9.85941V17.5836C1 18.7794 1 19.3774 1.24221 19.8341C1.45526 20.2359 1.79521 20.5626 2.21336 20.7673C2.68871 21 3.31099 21 4.55556 21H17.4444C18.689 21 19.3113 21 19.7867 20.7673C20.2048 20.5626 20.5448 20.2359 20.7578 19.8341C21 19.3774 21 18.7794 21 17.5836V9.85941C21 9.2462 21 8.9396 20.9178 8.65726C20.8449 8.40714 20.7251 8.1719 20.5644 7.96309C20.383 7.72735 20.1311 7.53912 19.6273 7.16265L12.0914 1.53078C11.7011 1.23905 11.5059 1.09318 11.2903 1.03711C11.1002 0.987632 10.8998 0.987632 10.7097 1.03711C10.4941 1.09318 10.2989 1.23905 9.90856 1.53078Z" stroke="currentColor" stroke-width="2" stroke-linecap="round" stroke-linejoin="round"/>
</svg>
