<svg viewBox="0 0 6 7" fill="none" xmlns="http://www.w3.org/2000/svg">
<path d="M4.71033 0H1.28967C0.947845 0.000710769 0.620219 0.139646 0.378505 0.386391C0.136804 0.633137 0.000700104 0.967589 2.52189e-06 1.31654V6.20577C-0.00036539 6.35312 0.0395287 6.49766 0.115204 6.62313C0.190883 6.74861 0.299344 6.85005 0.428404 6.91607C0.55745 6.98207 0.701977 7.01003 0.84574 6.9968C0.989502 6.98357 1.12679 6.92967 1.2422 6.84116L2.85099 5.61077C2.89428 5.57799 2.94675 5.56029 3.00066 5.56029C3.05457 5.56029 3.10704 5.57799 3.15033 5.61077L4.7578 6.83981C4.87308 6.92836 5.01028 6.98234 5.15396 6.99567C5.29764 7.00901 5.44212 6.98118 5.57115 6.91532C5.7002 6.84945 5.8087 6.74816 5.88444 6.62281C5.9602 6.49747 6.00022 6.35305 6 6.20577V1.31654C5.9993 0.967589 5.8632 0.633137 5.6215 0.386391C5.37978 0.139646 5.05216 0.000710769 4.71033 0Z" fill="#FF8C22"/>
</svg>
