<svg viewBox="0 0 54 55" fill="none" xmlns="http://www.w3.org/2000/svg">
<path d="M26.9999 54.3264C41.9115 54.3264 53.9997 42.2382 53.9997 27.3266C53.9997 12.415 41.9115 0.326721 26.9999 0.326721C12.0882 0.326721 0 12.415 0 27.3266C0 42.2382 12.0882 54.3264 26.9999 54.3264Z" fill="#FFC500"/>
<path d="M28.9137 50.5033C13.9993 50.5033 1.91383 38.4134 1.91383 23.5034C1.91014 20.0393 2.57333 16.6068 3.86722 13.3933C1.32911 17.5971 -0.00839475 22.4161 3.96454e-05 27.3266C3.96454e-05 42.2366 12.0899 54.3265 26.9999 54.3265C38.3375 54.3265 48.0428 47.34 52.042 37.4367C47.3169 45.2679 38.7246 50.5033 28.9137 50.5033Z" fill="#FF9F1E"/>
<path d="M27.0001 0.326705C21.2152 0.31619 15.5814 2.17404 10.9375 5.62373C17.3119 3.16387 24.319 2.87165 30.8761 4.79222C30.8197 4.86148 30.771 4.93672 30.7309 5.01659C29.9302 6.50803 31.5624 8.93657 34.3693 10.4412C37.1762 11.9458 40.1063 11.9634 40.907 10.4764C40.9833 10.3311 41.0382 10.1755 41.0698 10.0144C48.3378 15.6458 53.0321 24.4493 53.0761 34.3482C53.6912 32.0584 54.0019 29.6975 54 27.3266C54 12.4166 41.9101 0.326705 27.0001 0.326705Z" fill="#FFE059"/>
<path d="M43.0691 13.3854C43.2119 12.6508 42.3067 11.8568 41.0474 11.612C39.788 11.3672 38.6514 11.7643 38.5086 12.4989C38.3658 13.2335 39.2709 14.0275 40.5303 14.2723C41.7896 14.5171 42.9263 14.12 43.0691 13.3854Z" fill="#FFE059"/>
<path d="M37.1936 14.4018C37.4025 14.0399 37.1455 13.5002 36.6194 13.1965C36.0933 12.8928 35.4975 12.94 35.2885 13.3019C35.0796 13.6638 35.3366 14.2035 35.8627 14.5072C36.3887 14.8109 36.9846 14.7637 37.1936 14.4018Z" fill="#FFE059"/>
<path d="M39.1907 22.4782C38.9478 22.4788 38.7095 22.4121 38.5021 22.2855C38.2948 22.159 38.1265 21.9774 38.0161 21.7611C37.3561 20.472 36.5114 19.6977 35.7591 19.6977C35.0068 19.6977 34.1621 20.472 33.5021 21.7611C33.3369 22.062 33.0609 22.2867 32.7328 22.3875C32.4046 22.4883 32.0501 22.4573 31.7445 22.301C31.4388 22.1447 31.206 21.8755 31.0956 21.5505C30.9851 21.2255 31.0057 20.8702 31.1528 20.56C32.3055 18.3031 33.9421 17.058 35.7591 17.058C37.5761 17.058 39.2127 18.3031 40.3654 20.56C40.4445 20.714 40.4925 20.882 40.5065 21.0545C40.5206 21.227 40.5005 21.4005 40.4474 21.5652C40.3942 21.7299 40.3091 21.8825 40.1969 22.0143C40.0847 22.146 39.9476 22.2544 39.7935 22.333C39.6073 22.4296 39.4004 22.4794 39.1907 22.4782Z" fill="#00305F"/>
<path d="M14.8084 22.4782C14.5987 22.4794 14.3919 22.4296 14.2057 22.333C14.0516 22.2544 13.9145 22.146 13.8023 22.0143C13.69 21.8825 13.6049 21.7299 13.5518 21.5652C13.4987 21.4005 13.4786 21.227 13.4926 21.0545C13.5067 20.882 13.5547 20.714 13.6338 20.56C14.7864 18.3031 16.4231 17.058 18.2401 17.058C20.0571 17.058 21.6937 18.3031 22.8464 20.56C22.9935 20.8702 23.014 21.2255 22.9036 21.5505C22.7931 21.8755 22.5604 22.1447 22.2547 22.301C21.9491 22.4573 21.5945 22.4883 21.2664 22.3875C20.9382 22.2867 20.6623 22.062 20.497 21.7611C19.8371 20.472 18.9924 19.6977 18.2401 19.6977C17.4878 19.6977 16.643 20.472 15.9831 21.7611C15.8726 21.9774 15.7044 22.159 15.497 22.2855C15.2897 22.4121 15.0514 22.4788 14.8084 22.4782Z" fill="#00305F"/>
<path d="M20.3701 28.7168H33.6302C34.188 28.7168 34.7229 28.9384 35.1172 29.3327C35.5116 29.7271 35.7332 30.262 35.7332 30.8198C35.7338 31.967 35.5083 33.1031 35.0697 34.1631C34.6311 35.2232 33.9879 36.1864 33.1769 36.9978C32.3659 37.8092 31.403 38.4529 30.3431 38.892C29.2833 39.3312 28.1473 39.5572 27.0001 39.5572C24.684 39.5572 22.4627 38.6371 20.8249 36.9994C19.1872 35.3616 18.2671 33.1403 18.2671 30.8242C18.2671 30.2664 18.4887 29.7315 18.883 29.3371C19.2774 28.9428 19.8123 28.7212 20.3701 28.7212V28.7168Z" fill="#00305F"/>
<path d="M22.8071 38.4881C24.0925 39.1916 25.5346 39.5593 26.9999 39.5572C28.4651 39.5593 29.9073 39.1916 31.1926 38.4881C30.9594 35.7472 29.1688 34.137 26.9999 34.137C24.8309 34.137 23.0403 35.7472 22.8071 38.4881Z" fill="#FF4F4F"/>
</svg>
