<svg viewBox="0 0 54 55" fill="none" xmlns="http://www.w3.org/2000/svg">
<path d="M26.9999 54.3264C41.9115 54.3264 53.9997 42.2382 53.9997 27.3266C53.9997 12.415 41.9115 0.326721 26.9999 0.326721C12.0882 0.326721 0 12.415 0 27.3266C0 42.2382 12.0882 54.3264 26.9999 54.3264Z" fill="#C6E0A5"/>
<path d="M28.9137 50.5033C13.9993 50.5033 1.91383 38.4134 1.91383 23.5034C1.91014 20.0393 2.57333 16.6068 3.86722 13.3933C1.32911 17.5971 -0.00839475 22.4161 3.96454e-05 27.3266C3.96454e-05 42.2366 12.0899 54.3265 26.9999 54.3265C38.3375 54.3265 48.0428 47.34 52.042 37.4367C47.3169 45.2679 38.7246 50.5033 28.9137 50.5033Z" fill="#99AD7E"/>
<path d="M27.0001 0.326705C21.2152 0.31619 15.5814 2.17404 10.9375 5.62373C17.3119 3.16387 24.319 2.87165 30.8761 4.79222C30.8197 4.86148 30.771 4.93672 30.7309 5.01659C29.9302 6.50803 31.5624 8.93657 34.3693 10.4412C37.1762 11.9458 40.1063 11.9634 40.907 10.4764C40.9833 10.3311 41.0382 10.1755 41.0698 10.0144C48.3378 15.6458 53.0321 24.4493 53.0761 34.3482C53.6912 32.0584 54.0019 29.6975 54 27.3266C54 12.4166 41.9101 0.326705 27.0001 0.326705Z" fill="#E6F4D5"/>
<path d="M43.0691 13.3854C43.2119 12.6508 42.3067 11.8568 41.0474 11.612C39.788 11.3672 38.6514 11.7643 38.5086 12.4989C38.3658 13.2335 39.2709 14.0275 40.5303 14.2723C41.7896 14.5171 42.9263 14.12 43.0691 13.3854Z" fill="#E6F4D5"/>
<path d="M37.1936 14.4018C37.4025 14.0399 37.1455 13.5002 36.6194 13.1965C36.0933 12.8928 35.4975 12.94 35.2885 13.3019C35.0796 13.6638 35.3366 14.2035 35.8627 14.5072C36.3887 14.8109 36.9846 14.7637 37.1936 14.4018Z" fill="#E6F4D5"/>
<path d="M18.6074 21.7945C18.708 19.4908 17.6049 17.5716 16.1435 17.5078C14.6822 17.444 13.416 19.2598 13.3154 21.5634C13.2148 23.8671 14.318 25.7863 15.7793 25.8501C17.2406 25.9139 18.5068 24.0982 18.6074 21.7945Z" fill="#00305F"/>
<path d="M17.2591 20.6965C17.6625 20.6965 17.9894 20.3695 17.9894 19.9662C17.9894 19.5628 17.6625 19.2358 17.2591 19.2358C16.8558 19.2358 16.5288 19.5628 16.5288 19.9662C16.5288 20.3695 16.8558 20.6965 17.2591 20.6965Z" fill="white"/>
<path d="M38.2368 25.8173C39.6981 25.7535 40.8012 23.8342 40.7007 21.5306C40.6001 19.2269 39.3339 17.4111 37.8726 17.4749C36.4112 17.5387 35.3081 19.4579 35.4087 21.7616C35.5093 24.0653 36.7754 25.8811 38.2368 25.8173Z" fill="#00305F"/>
<path d="M38.9398 20.6965C39.3431 20.6965 39.6701 20.3695 39.6701 19.9662C39.6701 19.5628 39.3431 19.2358 38.9398 19.2358C38.5364 19.2358 38.2095 19.5628 38.2095 19.9662C38.2095 20.3695 38.5364 20.6965 38.9398 20.6965Z" fill="white"/>
<path d="M19.5795 33.3392C19.1722 33.3392 18.7689 33.3781 18.3926 33.4537C18.0163 33.5292 17.6744 33.6399 17.3864 33.7795C17.0984 33.9191 16.87 34.0848 16.7141 34.2672C16.5582 34.4495 16.478 34.645 16.478 34.8424C16.478 35.0398 16.5582 35.2353 16.7141 35.4176C16.87 35.6 17.0984 35.7657 17.3864 35.9053C17.6744 36.0449 18.0163 36.1556 18.3926 36.2312C18.7689 36.3067 19.1722 36.3456 19.5795 36.3456H34.4209C34.8282 36.3456 35.2315 36.3067 35.6078 36.2312C35.9841 36.1556 36.326 36.0449 36.614 35.9053C36.902 35.7657 37.1305 35.6 37.2863 35.4176C37.4422 35.2353 37.5224 35.0398 37.5224 34.8424C37.5224 34.645 37.4422 34.4495 37.2863 34.2672C37.1305 34.0848 36.902 33.9191 36.614 33.7795C36.326 33.6399 35.9841 33.5292 35.6078 33.4537C35.2315 33.3781 34.8282 33.3392 34.4209 33.3392H19.5795Z" fill="#00305F"/>
</svg>
