<svg viewBox="0 0 54 55" fill="none" xmlns="http://www.w3.org/2000/svg">
    <path d="M26.9999 54.3264C41.9115 54.3264 53.9997 42.2382 53.9997 27.3266C53.9997 12.415 41.9115 0.326721 26.9999 0.326721C12.0882 0.326721 0 12.415 0 27.3266C0 42.2382 12.0882 54.3264 26.9999 54.3264Z"
          fill="#E96969"/>
    <path d="M28.9137 50.5033C13.9993 50.5033 1.91383 38.4134 1.91383 23.5034C1.91014 20.0393 2.57333 16.6068 3.86722 13.3933C1.32911 17.5971 -0.00839475 22.4161 3.96454e-05 27.3266C3.96454e-05 42.2366 12.0899 54.3265 26.9999 54.3265C38.3375 54.3265 48.0428 47.34 52.042 37.4367C47.3169 45.2679 38.7246 50.5033 28.9137 50.5033Z"
          fill="#B35151"/>
    <path d="M27.0001 0.326705C21.2152 0.31619 15.5814 2.17404 10.9375 5.62373C17.3119 3.16387 24.319 2.87165 30.8761 4.79222C30.8197 4.86148 30.771 4.93672 30.7309 5.01659C29.9302 6.50803 31.5624 8.93657 34.3693 10.4412C37.1762 11.9458 40.1063 11.9634 40.907 10.4764C40.9833 10.3311 41.0382 10.1755 41.0698 10.0144C48.3378 15.6458 53.0321 24.4493 53.0761 34.3482C53.6912 32.0584 54.0019 29.6975 54 27.3266C54 12.4166 41.9101 0.326705 27.0001 0.326705Z"
          fill="#F3C2C2"/>
    <path d="M43.0691 13.3854C43.2119 12.6508 42.3067 11.8568 41.0474 11.612C39.788 11.3672 38.6514 11.7643 38.5086 12.4989C38.3658 13.2335 39.2709 14.0275 40.5303 14.2723C41.7896 14.5171 42.9263 14.12 43.0691 13.3854Z"
          fill="#F3C2C2"/>
    <path d="M37.1936 14.4018C37.4025 14.0399 37.1455 13.5002 36.6194 13.1965C36.0933 12.8928 35.4975 12.94 35.2885 13.3019C35.0796 13.6638 35.3366 14.2035 35.8627 14.5072C36.3887 14.8109 36.9846 14.7637 37.1936 14.4018Z"
          fill="#F3C2C2"/>
    <path d="M31.9143 38.6641C31.7327 38.6642 31.5529 38.6267 31.3864 38.5541C28.4343 37.2607 25.5658 37.2607 22.6138 38.5541C22.2929 38.6947 21.9293 38.7021 21.603 38.5746C21.2767 38.4472 21.0144 38.1953 20.8737 37.8744C20.7331 37.5535 20.7258 37.1899 20.8532 36.8636C20.9807 36.5373 21.2326 36.275 21.5535 36.1344C25.1655 34.5506 28.8347 34.5506 32.4467 36.1344C32.7251 36.2558 32.9531 36.4694 33.0923 36.7393C33.2315 37.0092 33.2733 37.3189 33.2108 37.6161C33.1483 37.9133 32.9852 38.1798 32.749 38.3707C32.5128 38.5616 32.218 38.6653 31.9143 38.6641Z"
          fill="#00305F"/>
    <path d="M19.456 24.4452C19.5566 22.1415 18.4535 20.2223 16.9922 20.1585C15.5308 20.0947 14.2646 21.9105 14.1641 24.2141C14.0635 26.5178 15.1666 28.437 16.6279 28.5008C18.0893 28.5646 19.3554 26.7489 19.456 24.4452Z"
          fill="#00305F"/>
    <path d="M18.2665 25.1136C18.6698 25.1136 18.9968 24.7866 18.9968 24.3832C18.9968 23.9799 18.6698 23.6529 18.2665 23.6529C17.8631 23.6529 17.5361 23.9799 17.5361 24.3832C17.5361 24.7866 17.8631 25.1136 18.2665 25.1136Z"
          fill="white"/>
    <path d="M20.6734 23.9389C20.5094 23.9396 20.3468 23.9098 20.1938 23.8509L11.5972 20.4941C11.271 20.3669 11.0088 20.1154 10.8681 19.7948C10.7274 19.4743 10.7199 19.111 10.847 18.7849C10.9742 18.4587 11.2257 18.1965 11.5463 18.0558C11.8668 17.9151 12.2301 17.9076 12.5562 18.0347L21.1529 21.3916C21.4382 21.5043 21.6753 21.7129 21.8234 21.9815C21.9716 22.25 22.0216 22.5618 21.9649 22.8632C21.9081 23.1647 21.7482 23.4369 21.5125 23.6332C21.2768 23.8295 20.9801 23.9376 20.6734 23.9389Z"
          fill="#00305F"/>
    <path d="M37.276 28.7167C38.7387 28.6582 39.8497 26.7415 39.7575 24.4356C39.6653 22.1298 38.4047 20.3079 36.942 20.3664C35.4792 20.425 34.3682 22.3417 34.4605 24.6475C34.5527 26.9534 35.8133 28.7752 37.276 28.7167Z"
          fill="#00305F"/>
    <path d="M35.7332 25.1136C36.1366 25.1136 36.4636 24.7866 36.4636 24.3832C36.4636 23.9799 36.1366 23.6529 35.7332 23.6529C35.3299 23.6529 35.0029 23.9799 35.0029 24.3832C35.0029 24.7866 35.3299 25.1136 35.7332 25.1136Z"
          fill="white"/>
    <path d="M33.326 23.9389C33.0193 23.9376 32.7226 23.8295 32.4869 23.6332C32.2512 23.4369 32.0913 23.1647 32.0345 22.8632C31.9778 22.5618 32.0278 22.25 32.1759 21.9815C32.3241 21.7129 32.5612 21.5043 32.8465 21.3916L41.4431 18.0347C41.6046 17.9718 41.7769 17.9412 41.9502 17.9448C42.1235 17.9485 42.2944 17.9862 42.4531 18.0558C42.6118 18.1255 42.7553 18.2257 42.8752 18.3508C42.9952 18.4759 43.0894 18.6234 43.1524 18.7849C43.2153 18.9463 43.2459 19.1187 43.2423 19.2919C43.2387 19.4652 43.2009 19.6361 43.1313 19.7948C43.0616 19.9535 42.9614 20.097 42.8363 20.217C42.7112 20.3369 42.5637 20.4311 42.4022 20.4941L33.8056 23.8509C33.6526 23.9098 33.49 23.9396 33.326 23.9389Z"
          fill="#00305F"/>
</svg>
