<svg viewBox="0 0 54 55" fill="none" xmlns="http://www.w3.org/2000/svg">
<path d="M26.9999 54.3264C41.9115 54.3264 53.9997 42.2382 53.9997 27.3265C53.9997 12.4149 41.9115 0.326691 26.9999 0.326691C12.0882 0.326691 0 12.4149 0 27.3265C0 42.2382 12.0882 54.3264 26.9999 54.3264Z" fill="#59BCDB"/>
<path d="M28.9137 50.5033C13.9993 50.5033 1.91383 38.4134 1.91383 23.5034C1.91014 20.0393 2.57333 16.6068 3.86722 13.3933C1.32911 17.5971 -0.00839475 22.4161 3.96454e-05 27.3266C3.96454e-05 42.2366 12.0899 54.3265 26.9999 54.3265C38.3375 54.3265 48.0428 47.34 52.042 37.4367C47.3169 45.2679 38.7246 50.5033 28.9137 50.5033Z" fill="#4B6997"/>
<path d="M27.0001 0.326705C21.2152 0.31619 15.5814 2.17404 10.9375 5.62373C17.3119 3.16387 24.319 2.87165 30.8761 4.79222C30.8197 4.86148 30.771 4.93672 30.7309 5.01659C29.9302 6.50803 31.5624 8.93657 34.3693 10.4412C37.1762 11.9458 40.1063 11.9634 40.907 10.4764C40.9833 10.3311 41.0382 10.1755 41.0698 10.0144C48.3378 15.6458 53.0321 24.4493 53.0761 34.3482C53.6912 32.0584 54.0019 29.6975 54 27.3266C54 12.4166 41.9101 0.326705 27.0001 0.326705Z" fill="#C6F8FF"/>
<path d="M43.0691 13.3854C43.2119 12.6508 42.3067 11.8568 41.0474 11.612C39.788 11.3672 38.6514 11.7643 38.5086 12.4989C38.3658 13.2335 39.2709 14.0275 40.5303 14.2723C41.7896 14.5171 42.9263 14.12 43.0691 13.3854Z" fill="#C6F8FF"/>
<path d="M37.1936 14.4018C37.4025 14.0399 37.1455 13.5002 36.6194 13.1965C36.0933 12.8928 35.4975 12.94 35.2885 13.3019C35.0796 13.6638 35.3366 14.2035 35.8627 14.5072C36.3887 14.8109 36.9846 14.7637 37.1936 14.4018Z" fill="#C6F8FF"/>
<path d="M35.7595 26.6798C33.9425 26.6798 32.3059 25.4391 31.1532 23.1822C31.0682 23.0274 31.0151 22.8571 30.9971 22.6814C30.9791 22.5057 30.9965 22.3282 31.0484 22.1593C31.1003 21.9905 31.1855 21.8338 31.299 21.6985C31.4125 21.5632 31.552 21.4521 31.7093 21.3717C31.8665 21.2913 32.0383 21.2433 32.2145 21.2305C32.3906 21.2177 32.5676 21.2404 32.7348 21.2972C32.902 21.354 33.0561 21.4439 33.188 21.5613C33.3199 21.6788 33.4268 21.8215 33.5025 21.9811C34.1625 23.2702 35.0072 24.0401 35.7595 24.0401C36.5118 24.0401 37.3565 23.2702 38.0164 21.9811C38.0921 21.8215 38.1991 21.6788 38.331 21.5613C38.4629 21.4439 38.617 21.354 38.7842 21.2972C38.9514 21.2404 39.1283 21.2177 39.3045 21.2305C39.4806 21.2433 39.6524 21.2913 39.8097 21.3717C39.9669 21.4521 40.1065 21.5632 40.22 21.6985C40.3335 21.8338 40.4187 21.9905 40.4706 22.1593C40.5224 22.3282 40.5399 22.5057 40.5219 22.6814C40.5039 22.8571 40.4508 23.0274 40.3658 23.1822C39.2131 25.4391 37.5765 26.6798 35.7595 26.6798Z" fill="#00305F"/>
<path d="M18.2409 26.6798C16.4239 26.6798 14.7873 25.4391 13.6346 23.1822C13.5496 23.0274 13.4965 22.8571 13.4786 22.6814C13.4606 22.5057 13.478 22.3282 13.5299 22.1593C13.5817 21.9905 13.6669 21.8338 13.7804 21.6985C13.894 21.5632 14.0335 21.4521 14.1907 21.3717C14.348 21.2913 14.5198 21.2433 14.6959 21.2305C14.8721 21.2177 15.049 21.2404 15.2162 21.2972C15.3834 21.354 15.5376 21.4439 15.6694 21.5613C15.8013 21.6788 15.9083 21.8215 15.984 21.9811C16.6439 23.2702 17.4886 24.0401 18.2409 24.0401C18.9933 24.0401 19.838 23.2702 20.4979 21.9811C20.5736 21.8215 20.6806 21.6788 20.8124 21.5613C20.9443 21.4439 21.0984 21.354 21.2656 21.2972C21.4329 21.2404 21.6098 21.2177 21.7859 21.2305C21.9621 21.2433 22.1339 21.2913 22.2911 21.3717C22.4484 21.4521 22.5879 21.5632 22.7014 21.6985C22.8149 21.8338 22.9002 21.9905 22.952 22.1593C23.0039 22.3282 23.0213 22.5057 23.0033 22.6814C22.9853 22.8571 22.9322 23.0274 22.8472 23.1822C21.6946 25.4391 20.0579 26.6798 18.2409 26.6798Z" fill="#00305F"/>
<path d="M31.9187 35.9673C31.6006 35.9678 31.293 35.8538 31.052 35.6461C29.6706 34.4494 28.3067 33.8423 27.0001 33.8423C25.6934 33.8423 24.3295 34.4494 22.9481 35.6461C22.8169 35.7596 22.6647 35.8462 22.5001 35.9009C22.3355 35.9556 22.1617 35.9773 21.9887 35.9649C21.8157 35.9524 21.6468 35.906 21.4917 35.8283C21.3367 35.7506 21.1984 35.6431 21.0849 35.5119C20.9714 35.3808 20.8848 35.2285 20.8301 35.0639C20.7754 34.8993 20.7536 34.7255 20.7661 34.5525C20.7786 34.3795 20.825 34.2106 20.9027 34.0556C20.9804 33.9005 21.0879 33.7622 21.2191 33.6487C23.0977 32.0253 25.0423 31.2026 27.0001 31.2026C28.9578 31.2026 30.9024 32.0253 32.781 33.6487C32.9847 33.8247 33.1297 34.0588 33.1966 34.3195C33.2634 34.5802 33.249 34.8552 33.1552 35.1075C33.0613 35.3598 32.8926 35.5774 32.6716 35.731C32.4506 35.8847 32.1879 35.9671 31.9187 35.9673Z" fill="#00305F"/>
<path d="M11.7163 33.9918C12.3681 33.8811 12.9645 33.557 13.4121 33.0704C13.8596 32.5839 14.1329 31.9624 14.1888 31.3037L14.4748 28.0305C14.4896 27.8482 14.4568 27.6652 14.3796 27.4994C14.3023 27.3337 14.1834 27.1908 14.0344 27.0848C13.8854 26.9788 13.7114 26.9133 13.5295 26.8948C13.3475 26.8762 13.1639 26.9052 12.9966 26.979L9.9961 28.3252C9.39314 28.5957 8.89706 29.0586 8.58571 29.6415C8.27437 30.2244 8.16539 30.8942 8.27589 31.5457C8.40831 32.326 8.84499 33.0219 9.49004 33.4805C10.1351 33.9391 10.9358 34.123 11.7163 33.9918Z" fill="#C6F8FF"/>
</svg>
