<svg width="22" height="16" viewBox="0 0 22 16" fill="none" xmlns="http://www.w3.org/2000/svg">
    <path d="M6.75488 1.53918L20.9736 1.53996M6.75488 8.00075L20.9736 8.00162M6.75488 14.4623L20.9736 14.4632M1.83301 1.53846H1.84395M1.83301 8H1.84395M1.83301 14.4615H1.84395M2.37988 1.53846C2.37988 1.83584 2.13504 2.07692 1.83301 2.07692C1.53098 2.07692 1.28613 1.83584 1.28613 1.53846C1.28613 1.24108 1.53098 1 1.83301 1C2.13504 1 2.37988 1.24108 2.37988 1.53846ZM2.37988 8C2.37988 8.29734 2.13504 8.53846 1.83301 8.53846C1.53098 8.53846 1.28613 8.29734 1.28613 8C1.28613 7.70266 1.53098 7.46154 1.83301 7.46154C2.13504 7.46154 2.37988 7.70266 2.37988 8ZM2.37988 14.4615C2.37988 14.7589 2.13504 15 1.83301 15C1.53098 15 1.28613 14.7589 1.28613 14.4615C1.28613 14.1642 1.53098 13.9231 1.83301 13.9231C2.13504 13.9231 2.37988 14.1642 2.37988 14.4615Z"
          stroke="currentColor" stroke-width="2" stroke-linecap="round" stroke-linejoin="round"/>
</svg>
