<svg  viewBox="0 0 22 22" fill="none" xmlns="http://www.w3.org/2000/svg">
<path d="M9.44686 12.5532L20.3661 1.63388M9.57955 12.8942L12.3126 19.9221C12.5533 20.5412 12.6738 20.8508 12.8472 20.9412C12.9976 21.0195 13.1768 21.0196 13.3271 20.9414C13.5007 20.8513 13.6215 20.5419 13.863 19.923L20.7164 2.361C20.9345 1.80237 21.0435 1.52306 20.9838 1.34458C20.932 1.18957 20.8105 1.06794 20.6554 1.01616C20.477 0.956537 20.1976 1.06553 19.639 1.28353L2.07698 8.13701C1.45814 8.37851 1.14873 8.49925 1.05855 8.67283C0.980383 8.82329 0.980487 9.00242 1.05884 9.1528C1.14921 9.32626 1.45877 9.44668 2.07788 9.68742L9.10576 12.4205C9.23139 12.4693 9.2942 12.4938 9.34713 12.5315C9.39403 12.5649 9.435 12.606 9.46849 12.6529C9.50624 12.7058 9.53068 12.7686 9.57955 12.8942Z" stroke="currentColor" stroke-width="1.5" stroke-linecap="round" stroke-linejoin="round"/>
</svg>
