<svg  viewBox="0 0 22 22" stroke="currentColor" fill="none" xmlns="http://www.w3.org/2000/svg">
<path d="M1.71283 10.22V14.71C1.71283 19.2 3.57751 21 8.22887 21H13.8126C18.4639 21 20.3286 19.2 20.3286 14.71V10.22"  stroke-width="1.5" stroke-linecap="round" stroke-linejoin="round"/>
<path d="M11.0259 11C12.9216 11 14.3202 9.51 14.1337 7.68L13.45 1H8.61216L7.91808 7.68C7.73161 9.51 9.13012 11 11.0259 11Z"  stroke-width="1.5" stroke-linecap="round" stroke-linejoin="round"/>
<path d="M17.5626 11C19.6552 11 21.1884 9.36 20.9812 7.35L20.6912 4.6C20.3182 2 19.2823 1 16.5681 1H13.4085L14.1337 8.01C14.3098 9.66 15.8533 11 17.5626 11Z"  stroke-width="1.5" stroke-linecap="round" stroke-linejoin="round"/>
<path d="M4.43734 11C6.14664 11 7.69018 9.66 7.85593 8.01L8.08384 5.8L8.5811 1H5.42148C2.70734 1 1.6714 2 1.29846 4.6L1.01876 7.35C0.811569 9.36 2.34475 11 4.43734 11Z"  stroke-width="1.5" stroke-linecap="round" stroke-linejoin="round"/>
<path d="M11.0259 16C9.29589 16 8.43607 16.83 8.43607 18.5V21H13.6157V18.5C13.6157 16.83 12.7559 16 11.0259 16Z"  stroke-width="1.5" stroke-linecap="round" stroke-linejoin="round"/>
</svg>
