<svg viewBox="0 0 47 17" fill="currentColor" xmlns="http://www.w3.org/2000/svg">
    <path d="M6.95191 16.308C5.69058 16.308 4.47325 16.154 3.29991 15.846C2.14125 15.5233 1.19525 15.1127 0.461914 14.614L1.89191 11.402C2.58125 11.842 3.37325 12.2087 4.26791 12.502C5.17725 12.7807 6.07925 12.92 6.97391 12.92C7.57525 12.92 8.05925 12.8687 8.42591 12.766C8.79258 12.6487 9.05658 12.502 9.21791 12.326C9.39391 12.1353 9.48191 11.9153 9.48191 11.666C9.48191 11.314 9.32058 11.0353 8.99791 10.83C8.67525 10.6247 8.25725 10.456 7.74391 10.324C7.23058 10.192 6.65858 10.06 6.02791 9.928C5.41191 9.796 4.78858 9.62733 4.15791 9.422C3.54191 9.21667 2.97725 8.95267 2.46391 8.63C1.95058 8.29267 1.53258 7.86 1.20991 7.332C0.887247 6.78933 0.725914 6.10733 0.725914 5.286C0.725914 4.362 0.975247 3.526 1.47391 2.778C1.98725 2.03 2.74991 1.42867 3.76191 0.974C4.77391 0.519333 6.03525 0.292 7.54591 0.292C8.55791 0.292 9.54791 0.409333 10.5159 0.644001C11.4986 0.864 12.3712 1.194 13.1339 1.634L11.7919 4.868C11.0586 4.472 10.3326 4.17867 9.61391 3.988C8.89525 3.78267 8.19858 3.68 7.52391 3.68C6.92258 3.68 6.43858 3.746 6.07191 3.878C5.70525 3.99533 5.44125 4.15667 5.27991 4.362C5.11858 4.56733 5.03791 4.802 5.03791 5.066C5.03791 5.40333 5.19191 5.67467 5.49991 5.88C5.82258 6.07067 6.24058 6.232 6.75391 6.364C7.28191 6.48133 7.85391 6.606 8.46991 6.738C9.10058 6.87 9.72391 7.03867 10.3399 7.244C10.9706 7.43467 11.5426 7.69867 12.0559 8.036C12.5692 8.35867 12.9799 8.79133 13.2879 9.334C13.6106 9.862 13.7719 10.5293 13.7719 11.336C13.7719 12.2307 13.5152 13.0593 13.0019 13.822C12.5032 14.57 11.7479 15.1713 10.7359 15.626C9.73858 16.0807 8.47725 16.308 6.95191 16.308Z"/>
    <path d="M23.5501 16.308C22.3181 16.308 21.1814 16.11 20.1401 15.714C19.0987 15.318 18.1894 14.7607 17.4121 14.042C16.6494 13.3087 16.0554 12.458 15.6301 11.49C15.2047 10.522 14.9921 9.45867 14.9921 8.3C14.9921 7.14133 15.2047 6.078 15.6301 5.11C16.0554 4.142 16.6494 3.29867 17.4121 2.58C18.1894 1.84667 19.0987 1.282 20.1401 0.886C21.1814 0.49 22.3181 0.292 23.5501 0.292C24.7967 0.292 25.9334 0.49 26.9601 0.886C28.0014 1.282 28.9034 1.84667 29.6661 2.58C30.4287 3.29867 31.0227 4.142 31.4481 5.11C31.8881 6.078 32.1081 7.14133 32.1081 8.3C32.1081 9.45867 31.8881 10.5293 31.4481 11.512C31.0227 12.48 30.4287 13.3233 29.6661 14.042C28.9034 14.7607 28.0014 15.318 26.9601 15.714C25.9334 16.11 24.7967 16.308 23.5501 16.308ZM23.5501 12.7C24.1367 12.7 24.6794 12.5973 25.1781 12.392C25.6914 12.1867 26.1314 11.8933 26.4981 11.512C26.8794 11.116 27.1727 10.6467 27.3781 10.104C27.5981 9.56133 27.7081 8.96 27.7081 8.3C27.7081 7.62533 27.5981 7.024 27.3781 6.496C27.1727 5.95333 26.8794 5.49133 26.4981 5.11C26.1314 4.714 25.6914 4.41333 25.1781 4.208C24.6794 4.00267 24.1367 3.9 23.5501 3.9C22.9634 3.9 22.4134 4.00267 21.9001 4.208C21.4014 4.41333 20.9614 4.714 20.5801 5.11C20.2134 5.49133 19.9201 5.95333 19.7001 6.496C19.4947 7.024 19.3921 7.62533 19.3921 8.3C19.3921 8.96 19.4947 9.56133 19.7001 10.104C19.9201 10.6467 20.2134 11.116 20.5801 11.512C20.9614 11.8933 21.4014 12.1867 21.9001 12.392C22.4134 12.5973 22.9634 12.7 23.5501 12.7Z"/>
    <path d="M39.8015 16.308C38.5402 16.308 37.3229 16.154 36.1495 15.846C34.9909 15.5233 34.0449 15.1127 33.3115 14.614L34.7415 11.402C35.4309 11.842 36.2229 12.2087 37.1175 12.502C38.0269 12.7807 38.9289 12.92 39.8235 12.92C40.4249 12.92 40.9089 12.8687 41.2755 12.766C41.6422 12.6487 41.9062 12.502 42.0675 12.326C42.2435 12.1353 42.3315 11.9153 42.3315 11.666C42.3315 11.314 42.1702 11.0353 41.8475 10.83C41.5249 10.6247 41.1069 10.456 40.5935 10.324C40.0802 10.192 39.5082 10.06 38.8775 9.928C38.2615 9.796 37.6382 9.62733 37.0075 9.422C36.3915 9.21667 35.8269 8.95267 35.3135 8.63C34.8002 8.29267 34.3822 7.86 34.0595 7.332C33.7369 6.78933 33.5755 6.10733 33.5755 5.286C33.5755 4.362 33.8249 3.526 34.3235 2.778C34.8369 2.03 35.5995 1.42867 36.6115 0.974C37.6235 0.519333 38.8849 0.292 40.3955 0.292C41.4075 0.292 42.3975 0.409333 43.3655 0.644001C44.3482 0.864 45.2209 1.194 45.9835 1.634L44.6415 4.868C43.9082 4.472 43.1822 4.17867 42.4635 3.988C41.7449 3.78267 41.0482 3.68 40.3735 3.68C39.7722 3.68 39.2882 3.746 38.9215 3.878C38.5549 3.99533 38.2909 4.15667 38.1295 4.362C37.9682 4.56733 37.8875 4.802 37.8875 5.066C37.8875 5.40333 38.0415 5.67467 38.3495 5.88C38.6722 6.07067 39.0902 6.232 39.6035 6.364C40.1315 6.48133 40.7035 6.606 41.3195 6.738C41.9502 6.87 42.5735 7.03867 43.1895 7.244C43.8202 7.43467 44.3922 7.69867 44.9055 8.036C45.4189 8.35867 45.8295 8.79133 46.1375 9.334C46.4602 9.862 46.6215 10.5293 46.6215 11.336C46.6215 12.2307 46.3649 13.0593 45.8515 13.822C45.3529 14.57 44.5975 15.1713 43.5855 15.626C42.5882 16.0807 41.3269 16.308 39.8015 16.308Z"/>
</svg>
