<svg width="28" height="16" viewBox="0 0 28 16" fill="none" xmlns="http://www.w3.org/2000/svg">
    <path d="M0.286133 15.864L7.10707 0H9.23727L16.0797 15.864H13.8204L7.73107 1.26912H8.59176L2.5024 15.864H0.286133ZM3.19095 11.898L3.77191 10.085H12.2497L12.8737 11.898H3.19095Z"
          fill="currentColor"/>
    <path d="M25.3281 15.864V13.3258L25.2205 12.8499V8.52125C25.2205 7.59962 24.9623 6.88952 24.4459 6.39094C23.9438 5.87724 23.1835 5.6204 22.1651 5.6204C21.4908 5.6204 20.831 5.74127 20.1855 5.983C19.54 6.20963 18.9949 6.51936 18.5502 6.91218L17.6895 5.28045C18.2776 4.78187 18.9805 4.40416 19.7982 4.14731C20.6302 3.87535 21.498 3.73938 22.4017 3.73938C23.9653 3.73938 25.1703 4.13975 26.0166 4.94051C26.863 5.74127 27.2861 6.96506 27.2861 8.6119V15.864H25.3281ZM21.5841 16C20.7377 16 19.9918 15.8489 19.3463 15.5467C18.7151 15.2446 18.2274 14.8291 17.8831 14.3003C17.5389 13.7564 17.3667 13.1445 17.3667 12.4646C17.3667 11.8149 17.5102 11.2257 17.7971 10.6969C18.0983 10.1681 18.5789 9.74504 19.2387 9.42776C19.9129 9.11048 20.8166 8.95184 21.9499 8.95184H25.5648V10.5156H22.0359C21.0031 10.5156 20.3074 10.6969 19.9488 11.0595C19.5902 11.4221 19.4109 11.8602 19.4109 12.3739C19.4109 12.9632 19.6332 13.4391 20.0779 13.8017C20.5226 14.1492 21.1394 14.3229 21.9284 14.3229C22.703 14.3229 23.3772 14.1416 23.951 13.779C24.5391 13.4164 24.9623 12.8876 25.2205 12.1926L25.6293 13.6884C25.3568 14.3985 24.8762 14.9651 24.1877 15.3881C23.4991 15.796 22.6313 16 21.5841 16Z"
          fill="currentColor"/>
</svg>
