<svg viewBox="0 0 17 18" fill="none" xmlns="http://www.w3.org/2000/svg">
    <path id="Vector_2"
          d="M1 3.66679H16M12.25 3.66679L11.9963 2.94507C11.7504 2.24568 11.6274 1.89598 11.3994 1.63744C11.198 1.40913 10.9395 1.23241 10.6473 1.12348C10.3165 1.00012 9.92781 1.00012 9.15025 1.00012H7.84975C7.07219 1.00012 6.6835 1.00012 6.35267 1.12348C6.06055 1.23241 5.80195 1.40913 5.60058 1.63744C5.37255 1.89598 5.24961 2.24568 5.00373 2.94507L4.75 3.66679M14.125 3.66679V12.7335C14.125 14.227 14.125 14.9736 13.8184 15.5441C13.5488 16.0459 13.1186 16.4538 12.5894 16.7095C11.9877 17.0001 11.2002 17.0001 9.625 17.0001H7.375C5.79985 17.0001 5.01228 17.0001 4.41065 16.7095C3.88144 16.4538 3.45119 16.0459 3.18154 15.5441C2.875 14.9736 2.875 14.227 2.875 12.7335V3.66679M10.375 7.22234V13.4446M6.625 7.22234V13.4446"
          stroke="currentColor" stroke-width="1.5" stroke-linecap="round" stroke-linejoin="round"/>
</svg>
