<svg viewBox="0 0 24 20" fill="none" xmlns="http://www.w3.org/2000/svg">
<path d="M2.57143 0C1.15371 0 0 1.3326 0 2.97012V14.8506C0 16.4882 1.15371 17.8207 2.57143 17.8207L7.87165 17.8014C8.72022 17.8014 9.5426 18.1087 10.2489 18.6522L12 20L13.7511 18.6522C14.4574 18.1087 15.2798 17.8207 16.1283 17.8207H21.4286C22.8463 17.8207 24 16.4882 24 14.8506V2.97012C24 1.3326 22.8463 0 21.4286 0H16.1283C14.9403 0 13.7885 0.40372 12.8002 1.16407L12 1.78091L11.1998 1.16407C10.2106 0.40273 9.06051 0 7.87165 0H2.57143ZM2.57143 1.98008H7.87165C8.72022 1.98008 9.5426 2.26803 10.2489 2.81156L12 4.15933L13.7511 2.81156C14.4574 2.26803 15.2798 1.98008 16.1283 1.98008H21.4286C21.9017 1.98008 22.2857 2.42461 22.2857 2.97012V14.8506C22.2857 15.3961 21.9017 15.8407 21.4286 15.8407H16.1283C14.9403 15.8407 13.7885 16.2444 12.8002 17.0047L12 17.6216L11.1998 17.0047C10.2106 16.2434 9.06051 15.8407 7.87165 15.8407H2.57143C2.09829 15.8407 1.71429 15.3961 1.71429 14.8506V2.97012C1.71429 2.42461 2.09829 1.98008 2.57143 1.98008ZM3.42857 5.94025V7.92033H10.2857V5.94025H3.42857ZM13.7143 5.94025V7.92033H20.5714V5.94025H13.7143ZM3.42857 9.90042V11.8805H10.2857V9.90042H3.42857ZM13.7143 9.90042V11.8805H20.5714V9.90042H13.7143Z" fill="currentColor"/>
</svg>
