<svg viewBox="0 0 18 16" fill="none" xmlns="http://www.w3.org/2000/svg">
    <path d="M1.31657 6.20882L0.658281 6.97808L0 6.20882L0.658281 5.43955L1.31657 6.20882ZM17.1429 14.9121C17.1429 15.5129 16.7261 16 16.2119 16C15.6977 16 15.2809 15.5129 15.2809 14.9121H17.1429ZM5.31307 12.4176L0.658281 6.97808L1.97486 5.43955L6.62965 10.8791L5.31307 12.4176ZM0.658281 5.43955L5.31307 0L6.62965 1.53854L1.97486 6.97808L0.658281 5.43955ZM1.31657 5.12091H10.6262V7.29673H1.31657V5.12091ZM17.1429 12.7363V14.9121H15.2809V12.7363H17.1429ZM10.6262 5.12091C14.2252 5.12091 17.1429 8.53042 17.1429 12.7363H15.2809C15.2809 9.73212 13.1969 7.29673 10.6262 7.29673V5.12091Z"
          fill="currentColor"/>
</svg>
