<svg viewBox="0 0 20 11" fill="currentColor" xmlns="http://www.w3.org/2000/svg">
    <path d="M10 8.21323L18.291 0.280471C18.4787 0.100876 18.7333 -1.89387e-05 18.9989 -1.89503e-05C19.2644 -1.89619e-05 19.519 0.100876 19.7068 0.280471C19.8945 0.460066 20 0.703649 20 0.957635C20 1.21162 19.8945 1.4552 19.7068 1.6348L10.7079 10.2428C10.615 10.3319 10.5047 10.4025 10.3832 10.4508C10.2617 10.499 10.1315 10.5238 10 10.5238C9.86848 10.5238 9.73826 10.499 9.61678 10.4508C9.49531 10.4025 9.38497 10.3319 9.29209 10.2428L0.293226 1.6348C0.105476 1.4552 -4.07048e-07 1.21162 -4.1815e-07 0.957636C-4.29253e-07 0.70365 0.105476 0.460067 0.293225 0.280472C0.480975 0.100877 0.735618 -1.8152e-05 1.00114 -1.81636e-05C1.26665 -1.81752e-05 1.5213 0.100877 1.70905 0.280472L10 8.21323Z"
    />
</svg>
