<svg viewBox="0 0 20 20" xmlns="http://www.w3.org/2000/svg">
    <circle id="Ellipse 11" cx="10" cy="10" r="10" fill="currentColor"/>
    <path id="Vector"
          d="M10 18.75C7.67936 18.75 5.45376 17.8281 3.81282 16.1872C2.17187 14.5462 1.25 12.3206 1.25 10C1.25 7.67936 2.17187 5.45376 3.81282 3.81282C5.45376 2.17187 7.67936 1.25 10 1.25C12.3206 1.25 14.5462 2.17187 16.1872 3.81282C17.8281 5.45376 18.75 7.67936 18.75 10C18.75 12.3206 17.8281 14.5462 16.1872 16.1872C14.5462 17.8281 12.3206 18.75 10 18.75ZM10 20C12.6522 20 15.1957 18.9464 17.0711 17.0711C18.9464 15.1957 20 12.6522 20 10C20 7.34784 18.9464 4.8043 17.0711 2.92893C15.1957 1.05357 12.6522 0 10 0C7.34784 0 4.8043 1.05357 2.92893 2.92893C1.05357 4.8043 0 7.34784 0 10C0 12.6522 1.05357 15.1957 2.92893 17.0711C4.8043 18.9464 7.34784 20 10 20Z"
          fill="currentColor"/>
    <path id="Vector_2"
          d="M8.75244 13.75C8.75244 13.5858 8.78477 13.4233 8.84759 13.2716C8.91041 13.12 9.00248 12.9822 9.11856 12.8661C9.23463 12.75 9.37243 12.658 9.52409 12.5951C9.67574 12.5323 9.83829 12.5 10.0024 12.5C10.1666 12.5 10.3291 12.5323 10.4808 12.5951C10.6325 12.658 10.7703 12.75 10.8863 12.8661C11.0024 12.9822 11.0945 13.12 11.1573 13.2716C11.2201 13.4233 11.2524 13.5858 11.2524 13.75C11.2524 14.0815 11.1207 14.3995 10.8863 14.6339C10.6519 14.8683 10.334 15 10.0024 15C9.67092 15 9.35298 14.8683 9.11856 14.6339C8.88414 14.3995 8.75244 14.0815 8.75244 13.75ZM8.87494 6.24374C8.8583 6.08605 8.87499 5.92661 8.92394 5.77578C8.97289 5.62495 9.05301 5.4861 9.15909 5.36823C9.26517 5.25036 9.39485 5.15611 9.53971 5.0916C9.68456 5.02708 9.84137 4.99374 9.99994 4.99374C10.1585 4.99374 10.3153 5.02708 10.4602 5.0916C10.605 5.15611 10.7347 5.25036 10.8408 5.36823C10.9469 5.4861 11.027 5.62495 11.0759 5.77578C11.1249 5.92661 11.1416 6.08605 11.1249 6.24374L10.6874 10.6275C10.6727 10.7997 10.5939 10.9601 10.4666 11.077C10.3393 11.1939 10.1728 11.2588 9.99994 11.2588C9.8271 11.2588 9.66055 11.1939 9.53325 11.077C9.40594 10.9601 9.32714 10.7997 9.31244 10.6275L8.87494 6.24374Z"
          fill="#f2f2f2"/>
</svg>
