<svg viewBox="0 0 20 13" fill="currentColor" xmlns="http://www.w3.org/2000/svg">
    <path fill-rule="evenodd" clip-rule="evenodd"
          d="M0 0.837125C0 0.374798 0.340041 0 0.759494 0H17.9747C18.3941 0 18.7342 0.374798 18.7342 0.837125C18.7342 1.29945 18.3941 1.67425 17.9747 1.67425H0.759494C0.340041 1.67425 0 1.29945 0 0.837125ZM0 6.41796C0 5.95564 0.340041 5.58083 0.759494 5.58083H6.83544C7.2549 5.58083 7.59494 5.95564 7.59494 6.41796C7.59494 6.88028 7.2549 7.25508 6.83544 7.25508H0.759494C0.340041 7.25508 0 6.88028 0 6.41796ZM0 11.9988C0 11.5365 0.340041 11.1617 0.759494 11.1617H7.8481C8.26754 11.1617 8.6076 11.5365 8.6076 11.9988C8.6076 12.4611 8.26754 12.8359 7.8481 12.8359H0.759494C0.340041 12.8359 0 12.4611 0 11.9988Z"
    />
    <path d="M10.8861 7.2158C10.8861 9.17199 13.0768 11.2514 14.4204 12.3428C14.8802 12.7165 15.1102 12.9032 15.443 12.9032C15.7759 12.9032 16.0059 12.7165 16.4657 12.3429C17.8093 11.2514 20 9.17199 20 7.2158C20 4.22758 17.4936 3.11195 15.443 5.42033C13.3925 3.11195 10.8861 4.22758 10.8861 7.2158Z"
    />
</svg>
